<svg width="320" height="573" viewBox="0 0 320 573" fill="none" xmlns="http://www.w3.org/2000/svg">
<line x1="319.098" y1="517.256" x2="562.061" y2="310.735" stroke="#0047FF" stroke-opacity="0.09"/>
<line x1="297.631" y1="517.256" x2="540.594" y2="310.735" stroke="#0047FF" stroke-opacity="0.09"/>
<line x1="308.365" y1="517.256" x2="551.328" y2="310.735" stroke="#0047FF" stroke-opacity="0.09"/>
<line x1="276.165" y1="517.256" x2="519.128" y2="310.735" stroke="#0047FF" stroke-opacity="0.09"/>
<line x1="286.898" y1="517.256" x2="529.861" y2="310.735" stroke="#0047FF" stroke-opacity="0.09"/>
<line x1="254.699" y1="517.256" x2="497.662" y2="310.735" stroke="#0047FF" stroke-opacity="0.09"/>
<line x1="265.432" y1="517.256" x2="508.395" y2="310.735" stroke="#0047FF" stroke-opacity="0.09"/>
<line x1="243.966" y1="517.256" x2="486.929" y2="310.735" stroke="#0047FF" stroke-opacity="0.09"/>
<line x1="233.233" y1="517.256" x2="476.196" y2="310.735" stroke="#0047FF" stroke-opacity="0.09"/>
<line x1="211.767" y1="517.256" x2="454.73" y2="310.735" stroke="#0047FF" stroke-opacity="0.09"/>
<line x1="222.5" y1="517.256" x2="465.463" y2="310.735" stroke="#0047FF" stroke-opacity="0.09"/>
<line x1="190.301" y1="517.256" x2="433.264" y2="310.735" stroke="#0047FF" stroke-opacity="0.09"/>
<line x1="201.034" y1="517.256" x2="443.997" y2="310.735" stroke="#0047FF" stroke-opacity="0.09"/>
<line x1="147.368" y1="517.256" x2="390.331" y2="310.735" stroke="#0047FF" stroke-opacity="0.09"/>
<line x1="168.834" y1="517.256" x2="411.797" y2="310.735" stroke="#0047FF" stroke-opacity="0.09"/>
<line x1="125.902" y1="517.256" x2="368.865" y2="310.735" stroke="#0047FF" stroke-opacity="0.09"/>
<line x1="179.568" y1="517.256" x2="422.531" y2="310.735" stroke="#0047FF" stroke-opacity="0.09"/>
<line x1="136.635" y1="517.256" x2="379.598" y2="310.735" stroke="#0047FF" stroke-opacity="0.09"/>
<line x1="158.101" y1="517.256" x2="401.064" y2="310.735" stroke="#0047FF" stroke-opacity="0.09"/>
<line x1="104.436" y1="517.256" x2="347.399" y2="310.735" stroke="#0047FF" stroke-opacity="0.09"/>
<line x1="115.169" y1="517.256" x2="358.132" y2="310.735" stroke="#0047FF" stroke-opacity="0.09"/>
<line x1="82.9696" y1="517.256" x2="325.933" y2="310.735" stroke="#0047FF" stroke-opacity="0.09"/>
<line x1="93.7029" y1="517.256" x2="336.666" y2="310.735" stroke="#0047FF" stroke-opacity="0.09"/>
<line x1="72.2367" y1="517.256" x2="315.2" y2="310.735" stroke="#0047FF" stroke-opacity="0.09"/>
<path d="M240.363 487.542L139.2 572.601L225.732 572.601L326.256 487.542L240.363 487.542Z" fill="#F3F3F3" fill-opacity="0.67"/>
<path d="M326.708 443.602L233.557 522.342L259.305 522.342L351.621 443.602L326.708 443.602Z" fill="white"/>
<line x1="-92.0103" y1="206.915" x2="150.953" y2="0.394575" stroke="#969BA7" stroke-opacity="0.09"/>
<line x1="-113.477" y1="206.915" x2="129.486" y2="0.394575" stroke="#969BA7" stroke-opacity="0.09"/>
<line x1="-102.743" y1="206.915" x2="140.22" y2="0.394575" stroke="#969BA7" stroke-opacity="0.09"/>
<line x1="-134.943" y1="206.915" x2="108.02" y2="0.394575" stroke="#969BA7" stroke-opacity="0.09"/>
<line x1="-124.209" y1="206.915" x2="118.754" y2="0.394575" stroke="#969BA7" stroke-opacity="0.09"/>
<line x1="-156.409" y1="206.915" x2="86.554" y2="0.394575" stroke="#969BA7" stroke-opacity="0.09"/>
<line x1="-145.676" y1="206.915" x2="97.2874" y2="0.394575" stroke="#969BA7" stroke-opacity="0.09"/>
<line x1="-167.142" y1="206.915" x2="75.8212" y2="0.394575" stroke="#969BA7" stroke-opacity="0.09"/>
<line x1="-177.875" y1="206.915" x2="65.0883" y2="0.394575" stroke="#969BA7" stroke-opacity="0.09"/>
<line x1="-199.341" y1="206.915" x2="43.622" y2="0.394575" stroke="#969BA7" stroke-opacity="0.09"/>
<line x1="-188.608" y1="206.915" x2="54.3549" y2="0.394575" stroke="#969BA7" stroke-opacity="0.09"/>
<line x1="-220.807" y1="206.915" x2="22.1558" y2="0.394575" stroke="#969BA7" stroke-opacity="0.09"/>
<line x1="-210.074" y1="206.915" x2="32.8887" y2="0.394575" stroke="#969BA7" stroke-opacity="0.09"/>
<line x1="-242.273" y1="206.915" x2="0.689578" y2="0.394575" stroke="#969BA7" stroke-opacity="0.09"/>
<line x1="-231.541" y1="206.915" x2="11.4225" y2="0.394575" stroke="#969BA7" stroke-opacity="0.09"/>
<path d="M62.7266 70.3765L-30.4246 149.116L-17.4776 149.116L74.8382 70.3765H62.7266Z" fill="#0047FF" fill-opacity="0.05"/>
</svg>
