<svg width="111" height="115" viewBox="0 0 111 115" fill="none" xmlns="http://www.w3.org/2000/svg">
<path d="M1.76892 31.8284C15.4019 31.8284 26.4459 42.9073 26.4459 56.5403C26.4459 42.9073 37.5249 31.8284 51.1578 31.8284C37.5249 31.8284 26.4459 20.7843 26.4459 7.15137C26.4491 20.7811 15.4019 31.8284 1.76892 31.8284Z" fill="url(#paint0_linear)" stroke="url(#paint1_linear)" stroke-width="3" stroke-miterlimit="10" stroke-linejoin="round"/>
<path d="M51.1578 84.2098C67.2142 84.2098 80.222 97.259 80.222 113.315C80.222 97.259 93.2738 84.2098 109.33 84.2098C93.2738 84.2098 80.222 71.202 80.222 55.1431C80.222 71.202 67.2116 84.2098 51.1578 84.2098Z" fill="url(#paint2_linear)" stroke="url(#paint3_linear)" stroke-width="3" stroke-miterlimit="10" stroke-linejoin="round"/>
<path d="M82.8118 29.7358C90.5151 29.7358 96.7598 23.4911 96.7598 15.7878C96.7598 8.08458 90.5151 1.83984 82.8118 1.83984C75.1086 1.83984 68.8638 8.08458 68.8638 15.7878C68.8638 23.4911 75.1086 29.7358 82.8118 29.7358Z" fill="url(#paint4_linear)" stroke="url(#paint5_linear)" stroke-width="3" stroke-miterlimit="10" stroke-linejoin="round"/>
<path d="M24.891 97.43C29.905 97.43 33.9695 93.3654 33.9695 88.3515C33.9695 83.3375 29.905 79.2729 24.891 79.2729C19.8771 79.2729 15.8125 83.3375 15.8125 88.3515C15.8125 93.3654 19.8771 97.43 24.891 97.43Z" fill="url(#paint6_linear)" stroke="url(#paint7_linear)" stroke-width="3" stroke-miterlimit="10" stroke-linejoin="round"/>
<path d="M51.1579 60.9856C54.3845 60.9856 57.0003 58.3699 57.0003 55.1432C57.0003 51.9165 54.3845 49.3008 51.1579 49.3008C47.9312 49.3008 45.3154 51.9165 45.3154 55.1432C45.3154 58.3699 47.9312 60.9856 51.1579 60.9856Z" fill="url(#paint8_linear)" stroke="url(#paint9_linear)" stroke-width="3" stroke-miterlimit="10" stroke-linejoin="round"/>
<defs>
<linearGradient id="paint0_linear" x1="26.4634" y1="7.15137" x2="26.4634" y2="56.5403" gradientUnits="userSpaceOnUse">
<stop/>
<stop offset="1" stop-color="#0047FF"/>
</linearGradient>
<linearGradient id="paint1_linear" x1="26.4634" y1="7.15137" x2="26.4634" y2="56.5403" gradientUnits="userSpaceOnUse">
<stop/>
<stop offset="1" stop-color="#0047FF"/>
</linearGradient>
<linearGradient id="paint2_linear" x1="80.244" y1="55.1431" x2="80.244" y2="113.315" gradientUnits="userSpaceOnUse">
<stop/>
<stop offset="1" stop-color="#0047FF"/>
</linearGradient>
<linearGradient id="paint3_linear" x1="80.244" y1="55.1431" x2="80.244" y2="113.315" gradientUnits="userSpaceOnUse">
<stop/>
<stop offset="1" stop-color="#0047FF"/>
</linearGradient>
<linearGradient id="paint4_linear" x1="82.8118" y1="1.83984" x2="82.8118" y2="29.7358" gradientUnits="userSpaceOnUse">
<stop/>
<stop offset="1" stop-color="#0047FF"/>
</linearGradient>
<linearGradient id="paint5_linear" x1="82.8118" y1="1.83984" x2="82.8118" y2="29.7358" gradientUnits="userSpaceOnUse">
<stop/>
<stop offset="1" stop-color="#0047FF"/>
</linearGradient>
<linearGradient id="paint6_linear" x1="24.891" y1="79.2729" x2="24.891" y2="97.43" gradientUnits="userSpaceOnUse">
<stop/>
<stop offset="1" stop-color="#0047FF"/>
</linearGradient>
<linearGradient id="paint7_linear" x1="24.891" y1="79.2729" x2="24.891" y2="97.43" gradientUnits="userSpaceOnUse">
<stop/>
<stop offset="1" stop-color="#0047FF"/>
</linearGradient>
<linearGradient id="paint8_linear" x1="51.1579" y1="49.3008" x2="51.1579" y2="60.9856" gradientUnits="userSpaceOnUse">
<stop/>
<stop offset="1" stop-color="#0047FF"/>
</linearGradient>
<linearGradient id="paint9_linear" x1="51.1579" y1="49.3008" x2="51.1579" y2="60.9856" gradientUnits="userSpaceOnUse">
<stop/>
<stop offset="1" stop-color="#0047FF"/>
</linearGradient>
</defs>
</svg>
