<svg width="320" height="241" viewBox="0 0 320 241" fill="none" xmlns="http://www.w3.org/2000/svg">
<path d="M188.762 128L51.4102 241L481.23 241L615.41 128L188.762 128Z" fill="#373E4B"/>
<path d="M63.9065 142.048L-43 232.415L86.9177 232.416L192.865 142.048L63.9065 142.048Z" fill="#50535A"/>
<line y1="-0.5" x2="285.73" y2="-0.5" transform="translate(76.1005 185.809) scale(1.00024 0.999757) rotate(-40.3671)" stroke="#757575" stroke-opacity="0.15"/>
<line y1="-0.5" x2="285.73" y2="-0.5" transform="translate(56.8616 185.809) scale(1.00024 0.999757) rotate(-40.3671)" stroke="#757575" stroke-opacity="0.15"/>
<line y1="-0.5" x2="285.73" y2="-0.5" transform="translate(66.4812 185.809) scale(1.00024 0.999757) rotate(-40.3671)" stroke="#757575" stroke-opacity="0.15"/>
<line y1="-0.5" x2="285.73" y2="-0.5" transform="translate(37.6227 185.809) scale(1.00024 0.999757) rotate(-40.3671)" stroke="#757575" stroke-opacity="0.15"/>
<line y1="-0.5" x2="285.73" y2="-0.5" transform="translate(47.2422 185.809) scale(1.00024 0.999757) rotate(-40.3671)" stroke="#757575" stroke-opacity="0.15"/>
<line y1="-0.5" x2="285.73" y2="-0.5" transform="translate(18.3839 185.809) scale(1.00024 0.999757) rotate(-40.3671)" stroke="#757575" stroke-opacity="0.15"/>
<line y1="-0.5" x2="285.73" y2="-0.5" transform="translate(28.0034 185.809) scale(1.00024 0.999757) rotate(-40.3671)" stroke="#757575" stroke-opacity="0.15"/>
<line y1="-0.5" x2="285.73" y2="-0.5" transform="translate(8.76465 185.809) scale(1.00024 0.999757) rotate(-40.3671)" stroke="#757575" stroke-opacity="0.15"/>
<line y1="-0.5" x2="285.73" y2="-0.5" transform="translate(-0.854614 185.809) scale(1.00024 0.999757) rotate(-40.3671)" stroke="#757575" stroke-opacity="0.15"/>
<line y1="-0.5" x2="285.73" y2="-0.5" transform="translate(-20.0936 185.809) scale(1.00024 0.999757) rotate(-40.3671)" stroke="#757575" stroke-opacity="0.15"/>
<line y1="-0.5" x2="285.73" y2="-0.5" transform="translate(-10.4744 185.809) scale(1.00024 0.999757) rotate(-40.3671)" stroke="#757575" stroke-opacity="0.15"/>
<line y1="-0.5" x2="285.73" y2="-0.5" transform="translate(-39.3324 185.809) scale(1.00024 0.999757) rotate(-40.3671)" stroke="#757575" stroke-opacity="0.15"/>
<line y1="-0.5" x2="285.73" y2="-0.5" transform="translate(-29.7131 185.809) scale(1.00024 0.999757) rotate(-40.3671)" stroke="#757575" stroke-opacity="0.15"/>
<line y1="-0.5" x2="285.73" y2="-0.5" transform="translate(-77.8103 185.809) scale(1.00024 0.999757) rotate(-40.3671)" stroke="#757575" stroke-opacity="0.15"/>
<line y1="-0.5" x2="285.73" y2="-0.5" transform="translate(-58.5714 185.809) scale(1.00024 0.999757) rotate(-40.3671)" stroke="#757575" stroke-opacity="0.15"/>
<line y1="-0.5" x2="285.73" y2="-0.5" transform="translate(-97.0492 185.809) scale(1.00024 0.999757) rotate(-40.3671)" stroke="#757575" stroke-opacity="0.15"/>
<line y1="-0.5" x2="285.73" y2="-0.5" transform="translate(-48.9521 185.809) scale(1.00024 0.999757) rotate(-40.3671)" stroke="#757575" stroke-opacity="0.15"/>
<line y1="-0.5" x2="285.73" y2="-0.5" transform="translate(-87.4297 185.809) scale(1.00024 0.999757) rotate(-40.3671)" stroke="#757575" stroke-opacity="0.15"/>
<line y1="-0.5" x2="285.73" y2="-0.5" transform="translate(-68.1909 185.809) scale(1.00024 0.999757) rotate(-40.3671)" stroke="#757575" stroke-opacity="0.15"/>
<line y1="-0.5" x2="285.73" y2="-0.5" transform="translate(-116.288 185.809) scale(1.00024 0.999757) rotate(-40.3671)" stroke="#757575" stroke-opacity="0.15"/>
<line y1="-0.5" x2="285.73" y2="-0.5" transform="translate(-106.668 185.809) scale(1.00024 0.999757) rotate(-40.3671)" stroke="#757575" stroke-opacity="0.15"/>
<line y1="-0.5" x2="285.73" y2="-0.5" transform="translate(-135.527 185.809) scale(1.00024 0.999757) rotate(-40.3671)" stroke="#757575" stroke-opacity="0.15"/>
<line y1="-0.5" x2="285.73" y2="-0.5" transform="translate(-125.907 185.809) scale(1.00024 0.999757) rotate(-40.3671)" stroke="#757575" stroke-opacity="0.15"/>
<line y1="-0.5" x2="285.73" y2="-0.5" transform="translate(-145.146 185.809) scale(1.00024 0.999757) rotate(-40.3671)" stroke="#757575" stroke-opacity="0.15"/>
</svg>
