<svg width="320" height="208" viewBox="0 0 320 208" fill="none" xmlns="http://www.w3.org/2000/svg">
<line x1="130.378" y1="206.983" x2="373.341" y2="0.462446" stroke="#0047FF" stroke-opacity="0.09"/>
<line x1="108.912" y1="206.983" x2="351.875" y2="0.462446" stroke="#0047FF" stroke-opacity="0.09"/>
<line x1="119.645" y1="206.983" x2="362.608" y2="0.462446" stroke="#0047FF" stroke-opacity="0.09"/>
<line x1="87.4459" y1="206.983" x2="330.409" y2="0.462446" stroke="#0047FF" stroke-opacity="0.09"/>
<line x1="98.1792" y1="206.983" x2="341.142" y2="0.462446" stroke="#0047FF" stroke-opacity="0.09"/>
<line x1="65.9796" y1="206.983" x2="308.943" y2="0.462446" stroke="#0047FF" stroke-opacity="0.09"/>
<line x1="76.713" y1="206.983" x2="319.676" y2="0.462446" stroke="#0047FF" stroke-opacity="0.09"/>
<line x1="55.2469" y1="206.983" x2="298.21" y2="0.462446" stroke="#0047FF" stroke-opacity="0.09"/>
<line x1="44.5139" y1="206.983" x2="287.477" y2="0.462446" stroke="#0047FF" stroke-opacity="0.09"/>
<line x1="23.0476" y1="206.983" x2="266.011" y2="0.462446" stroke="#0047FF" stroke-opacity="0.09"/>
<line x1="33.7805" y1="206.983" x2="276.744" y2="0.462446" stroke="#0047FF" stroke-opacity="0.09"/>
<line x1="1.58145" y1="206.983" x2="244.544" y2="0.462446" stroke="#0047FF" stroke-opacity="0.09"/>
<line x1="12.3144" y1="206.983" x2="255.277" y2="0.462446" stroke="#0047FF" stroke-opacity="0.09"/>
<line x1="-41.3509" y1="206.983" x2="201.612" y2="0.462446" stroke="#0047FF" stroke-opacity="0.09"/>
<line x1="-19.8847" y1="206.983" x2="223.078" y2="0.462446" stroke="#0047FF" stroke-opacity="0.09"/>
<line x1="-62.8172" y1="206.983" x2="180.146" y2="0.462446" stroke="#0047FF" stroke-opacity="0.09"/>
<line x1="-9.15183" y1="206.983" x2="233.811" y2="0.462446" stroke="#0047FF" stroke-opacity="0.09"/>
<line x1="-52.0838" y1="206.983" x2="190.879" y2="0.462446" stroke="#0047FF" stroke-opacity="0.09"/>
<line x1="-30.618" y1="206.983" x2="212.345" y2="0.462446" stroke="#0047FF" stroke-opacity="0.09"/>
<line x1="-84.2834" y1="206.983" x2="158.68" y2="0.462446" stroke="#0047FF" stroke-opacity="0.09"/>
<line x1="-73.5501" y1="206.983" x2="169.413" y2="0.462446" stroke="#0047FF" stroke-opacity="0.09"/>
<line x1="-105.75" y1="206.983" x2="137.213" y2="0.462446" stroke="#0047FF" stroke-opacity="0.09"/>
<line x1="-95.0163" y1="206.983" x2="147.947" y2="0.462446" stroke="#0047FF" stroke-opacity="0.09"/>
<line x1="-116.483" y1="206.983" x2="126.48" y2="0.462446" stroke="#0047FF" stroke-opacity="0.09"/>
<path d="M241.529 94.3711L130.702 189.488L187.965 189.488L298.368 94.3711L241.529 94.3711Z" fill="#C4C4C4" fill-opacity="0.38"/>
</svg>
